<svg width="32" height="32" viewBox="0 0 32 32" fill="none" xmlns="http://www.w3.org/2000/svg">
<path d="M12 26C12.5523 26 13 25.5523 13 25C13 24.4477 12.5523 24 12 24C11.4477 24 11 24.4477 11 25C11 25.5523 11.4477 26 12 26Z" stroke="#E3E2E1" stroke-linecap="round" stroke-linejoin="round"/>
<path d="M23 26C23.5523 26 24 25.5523 24 25C24 24.4477 23.5523 24 23 24C22.4477 24 22 24.4477 22 25C22 25.5523 22.4477 26 23 26Z" stroke="#E3E2E1" stroke-linecap="round" stroke-linejoin="round"/>
<path d="M6.04999 6.05H8.04999L10.71 18.47C10.8076 18.9249 11.0607 19.3315 11.4257 19.6199C11.7907 19.9082 12.2449 20.0604 12.71 20.05H22.49C22.9452 20.0493 23.3865 19.8933 23.741 19.6078C24.0956 19.3224 24.3421 18.9245 24.44 18.48L26.09 11.05H9.11999" stroke="#E3E2E1" stroke-linecap="round" stroke-linejoin="round"/>
</svg>
